<svg xmlns="http://www.w3.org/2000/svg" viewBox="0 0 119.17 119.17"><defs><style>.cls-1{isolation:isolate;}.cls-16,.cls-2,.cls-8{fill:#414042;}.cls-3{fill:#cdcdcd;}.cls-4{fill:#58595b;}.cls-5{fill:#939598;}.cls-6{fill:#4f4f4f;}.cls-7{fill:#bcbec0;}.cls-8{stroke:#000;stroke-linecap:round;stroke-linejoin:round;stroke-width:0;}.cls-10,.cls-11,.cls-12,.cls-13,.cls-9{fill:#e77874;}.cls-10,.cls-11,.cls-12,.cls-13{mix-blend-mode:multiply;}.cls-11{opacity:0.35;}.cls-12{opacity:0.5;}.cls-13{opacity:0.2;}.cls-14{fill:#ea8b88;}.cls-15{fill:#1d1d1b;}.cls-16{stroke:#414042;}</style></defs><title>Asset 1</title><g class="cls-1"><g id="Layer_2" data-name="Layer 2"><g id="Layer_1-2" data-name="Layer 1"><path class="cls-2" d="M59.58,119.17a59.59,59.59,0,1,1,59.59-59.59A59.65,59.65,0,0,1,59.58,119.17Zm0-114.88a55.3,55.3,0,1,0,55.3,55.29A55.35,55.35,0,0,0,59.58,4.29Z"/><rect class="cls-3" x="51.7" y="107.4" width="5.14" height="5.14" transform="translate(-0.77 0.38) rotate(-0.4)"/><rect class="cls-4" x="60.52" y="107.31" width="5.14" height="5.14" transform="translate(-0.76 0.44) rotate(-0.4)"/><rect class="cls-3" x="60.73" y="100.23" width="5.14" height="5.14" transform="translate(-0.68 0.42) rotate(-0.38)"/><rect class="cls-3" x="19.18" y="87.66" width="5.14" height="5.14" transform="translate(-0.59 0.15) rotate(-0.38)"/><rect class="cls-3" x="44.86" y="101.37" width="5.14" height="5.14" transform="translate(-0.68 0.31) rotate(-0.38)"/><rect class="cls-5" x="68.16" y="100.18" width="5.14" height="5.14" transform="translate(-0.68 0.47) rotate(-0.38)"/><rect class="cls-3" x="68.05" y="91.89" width="5.14" height="5.14" transform="translate(-0.62 0.47) rotate(-0.38)"/><rect class="cls-3" x="75.59" y="100.13" width="5.14" height="5.14" transform="translate(-0.67 0.52) rotate(-0.38)"/><rect class="cls-6" x="83.02" y="100.08" width="5.14" height="5.14" transform="translate(-0.67 0.57) rotate(-0.38)"/><rect class="cls-5" x="82.97" y="92.36" width="5.14" height="5.14" transform="translate(-0.66 0.6) rotate(-0.4)"/><rect class="cls-3" x="91.84" y="91.24" width="5.14" height="5.14" transform="translate(-0.62 0.62) rotate(-0.38)"/><rect class="cls-3" x="91.59" y="19.8" width="5.15" height="5.14" transform="translate(-0.15 0.66) rotate(-0.4)"/><rect class="cls-3" x="99.22" y="83.48" width="5.14" height="5.14" transform="translate(-0.56 0.67) rotate(-0.38)"/><rect class="cls-3" x="106.55" y="68" width="5.14" height="5.15" transform="translate(-0.49 0.76) rotate(-0.4)"/><rect class="cls-6" x="99.12" y="68.05" width="5.14" height="5.14" transform="translate(-0.49 0.71) rotate(-0.4)"/><rect class="cls-5" x="99.07" y="60.33" width="5.14" height="5.14" transform="translate(-0.41 0.67) rotate(-0.38)"/><rect class="cls-7" x="98.97" y="29.18" width="5.14" height="5.14" transform="translate(-0.21 0.67) rotate(-0.38)"/><rect class="cls-3" x="37.71" y="101.37" width="5.14" height="5.14" transform="translate(-0.68 0.27) rotate(-0.38)"/><path class="cls-2" d="M49.16,76.17l.21-.06L49.3,76Z"/><path class="cls-2" d="M62.81,76.37c.15-.27.28-.52.39-.73l0,0a4,4,0,0,1,1.32-.25,8.53,8.53,0,0,0,1.5-.08,1.88,1.88,0,0,1,.58,0,1.5,1.5,0,0,1,.4.09.94.94,0,0,0,.64.08h.13a3.07,3.07,0,0,0,.42.07.65.65,0,0,1,.21.07l.28.07c1.31,0,1.51-.62,1.51-1v-.1h1.12l-1.29-.76a.86.86,0,0,0-.58-.36l-.07,0a2.12,2.12,0,0,0-1.1-.35,4.83,4.83,0,0,1-.83-.1l-.22,0h-.82a4.93,4.93,0,0,1-.62-.06h-.7l-.43,0,.36-.76,0-.08a6.57,6.57,0,0,1,.33-.91,8.13,8.13,0,0,1,.52-1l.14-.33c.11-.22.23-.49.34-.78s.2-.56.25-.76a1.74,1.74,0,0,1,.18-.33,3.36,3.36,0,0,0,.32-.51l.44-.89L68,65.3a3.61,3.61,0,0,0,.39-1,1,1,0,0,1,0-.18l.12-.22v0L69,63.1l.58-1.48A12.26,12.26,0,0,0,70,60c.11-.51.2-1,.27-1.53,0-.23.08-.48.12-.75a2.4,2.4,0,0,0,0-1V56.4a2.09,2.09,0,0,0-.09-.61,1.44,1.44,0,0,0-.07-.22v-.12L69.91,55l.31-.33H69.7l-.06-.07a1.28,1.28,0,0,0-.56-.36,1.38,1.38,0,0,0-.46-.09h-.3c-.19,0-.38.06-.56.07a1.48,1.48,0,0,0-.79.35l-.29.08-1.48.86-.71.55-.24.2a2.21,2.21,0,0,0-.7.47,2.37,2.37,0,0,0-.36.45l-.54.36-.57.62-.55.44-.67.63a5.17,5.17,0,0,1-.58.57L58.61,61.3l-.06.06a3.74,3.74,0,0,1-.87.86l-.39.4-.07.09a2.63,2.63,0,0,1-.29.39,2,2,0,0,1-.4.34l-.17.17a7.41,7.41,0,0,1-.6.79l-.65.75-.57.53-2.65,3.16-.34.31a1.74,1.74,0,0,0-.38.47l-2,2.42h0L49.07,72l-.1.13h0l-.07.09-.15.22a9.52,9.52,0,0,1-.79.91h0l-.09.07,0,.12-.41.35.09.07c-.15.17-.29.35-.43.52-.28.36-.53.67-.74,1-.09.12-.23.28-.4.47s-.39.43-.52.6A3.34,3.34,0,0,0,45,77l-.22.3-2.3.77L40,78.88l-2.55.78c-.82.24-1.69.52-2.55.82l-.61.17-.21.07L31,81.61l-2.77.45-.13,0-.55.27a23,23,0,0,1-3.41,1.32h0l-.53.16-1.37.39,1.57.4a8.37,8.37,0,0,0,1.26.24c.47,0,.95.1,1.49.13h.57a3.7,3.7,0,0,0,.62,0,1.08,1.08,0,0,0,.27,0l1.68-.17,1.09-.23c.43-.09.86-.18,1.25-.29l2-.5a.91.91,0,0,0,.31-.12l.08,0h.09a2.52,2.52,0,0,0,.72-.14l.1,0a.34.34,0,0,1,.17-.07,2.37,2.37,0,0,0,.51-.16l.88-.22,4.3-1.48-1.72,1.85a3.53,3.53,0,0,1-.43.56l-1.4,1.4-.25.39-.55.51-.49.5a3.77,3.77,0,0,0-.54.51,3.34,3.34,0,0,0-.36.48,5.25,5.25,0,0,0-.6.48c-.2.18-.39.36-.59.57l-.59.66a.74.74,0,0,1-.27.25l-.11.11c-.18.24-.29.29-.32.3l-1.12,1-.15.09-.5.5-2.75,2.24-1.12.61-.31.14-.14,0a1.27,1.27,0,0,0-.6.14,1.84,1.84,0,0,1-.56.11h-.36l-.22,0-.66-.34v0a.73.73,0,0,0-.05-.28,1.38,1.38,0,0,0-.05-.25l-.05-.29-.1-.1c-.11-.28-.42-.42-1-.42l-.24,0-.12.13a1.56,1.56,0,0,0-.47.71,1.42,1.42,0,0,0-.08.41l-.06.87h-.17l.2.4h-.07l.11.08.21.43a1.62,1.62,0,0,0,.5.58l.55.42-.32.08h.43l.06,0a3,3,0,0,0,1.57.4,5.23,5.23,0,0,0,1.06-.09,7.22,7.22,0,0,0,.74-.2l1.81-.6v.13l.2-.2,1.67-.55H29.68l.32-.33a1.36,1.36,0,0,1,.24-.16,3.16,3.16,0,0,0,.54-.41l1.81-1.5.21-.25.62-.47.45-.47L34.6,92l1.77-1.72,1.3-1.25,3.17-3.38.53-.47,1.23-1.44a4,4,0,0,0,.79-.8c.18-.24.38-.49.65-.81a4.72,4.72,0,0,1,.5-.59c.22-.21.45-.46.69-.74l.88-.93c.38-.14.76-.26,1.13-.37s.93-.27,1.46-.45L49,79l.09,0a2.91,2.91,0,0,0,.69-.19,4.24,4.24,0,0,1,.68-.2l.46-.11L51,78.4h0v0l.24-.07.28-.08.13,0,.17-.06a5.82,5.82,0,0,1,.63-.14l.52-.11v0l.18,0,0,0,1.45-.47.75-.15.22-.07a.94.94,0,0,0,.34-.06l4-.75-1.85,3.47c-.06.15-.13.31-.21.47a5.69,5.69,0,0,0-.26.56l-.06.19-.38.59c-.14.29-.29.62-.46,1s-.31.76-.42,1.08l-.44.88q-.24.48-.45,1l-.31.72,0-.56L54.22,88a3,3,0,0,1-.18.43v0l-.06.13-.33.89c0,.16-.1.33-.16.5s-.2.56-.29.79-.19.46-.29.67h0a6.73,6.73,0,0,1-.33.6l-.16.65a2.5,2.5,0,0,0-.07.26.88.88,0,0,0-.12.32.82.82,0,0,0-.1.4v.59a1.57,1.57,0,0,0,.17.87l.5.66h.31a1.52,1.52,0,0,0,.84-.15.76.76,0,0,0,.34-.5,4.24,4.24,0,0,0,.17-.47,1.51,1.51,0,0,1,.13-.29l.3-.53c.07-.2.13-.36.17-.51a1.08,1.08,0,0,1,.11-.21l.06-.09v-.13a1.15,1.15,0,0,0,.09-.26l1.43-3.31.76-2,.42-.93,0-.13h0a1.19,1.19,0,0,0,.1-.28,1.35,1.35,0,0,0,.2-.35l.08-.28.79-1.55.13-.38,1.08-2,.78-1.6.49-1,.59-1.2C62.4,77.13,62.61,76.74,62.81,76.37ZM34.16,83.26,34,83ZM23.65,94.49h0ZM51.22,75.62l-.13,0a5.33,5.33,0,0,1-.82.23l-.32,0h-.09l-.11,0-.22,0,0,0-.15,0h0l.33-.48a1.1,1.1,0,0,1,.2-.23l0,0,.2-.22h0l.1-.16.09-.13.2-.31a.84.84,0,0,1,.13-.17l.23-.32h0l.47-.52.79-.81.21-.17v-.12l0-.07,0,0a4.6,4.6,0,0,1,.43-.54l.52-.55c.11-.11.29-.31.55-.6s.27-.32.31-.37l.92-1.17,2.92-3.18,2.38-2.49a8,8,0,0,0,.88-.79,9.09,9.09,0,0,1,.77-.75l1.48-1.39.84-.58a4.11,4.11,0,0,0,.72-.65,3.44,3.44,0,0,1,.49-.33l.27-.25.67-.44.8-.51a1.23,1.23,0,0,0,.39-.18l.08,0-.15,1.13a2.2,2.2,0,0,0-.17.53,2.92,2.92,0,0,0-.05.45l-.57,1.76-.42.94,0,.07a.72.72,0,0,0-.17.34c-.06.21-.14.44-.23.67s-.17.43-.23.62a1.43,1.43,0,0,0-.19.37l-.08.07-.07.14-.77,1.87c-.24.57-.51,1.15-.83,1.76-.17.41-.36.83-.56,1.24s-.41.9-.57,1.32l-.55,1.16-.2.37-.13.2a3.46,3.46,0,0,0-.26.48l-.1.22-1.18.32-2.19.33a14.44,14.44,0,0,1-1.5.32,11.59,11.59,0,0,0-1.54.31l-.71.24L52.93,75a8.41,8.41,0,0,0-.92.24l-.18,0,0,.11c-.09,0-.18.06-.27.09h0l-.07,0Zm-2.06.55L49.3,76l.07.09ZM68.33,56.82Z"/><line class="cls-8" x1="70.33" y1="56.82" x2="70.33" y2="56.82"/><path class="cls-2" d="M98.77,81.66a1,1,0,0,0-.92-.19c-.2.07-.49.24-1.11,1a14.74,14.74,0,0,1-2.87,2.81,11.61,11.61,0,0,1-4.33,2.16L89.49,87A10.44,10.44,0,0,1,90,84l0-.18-.1-.18a3,3,0,0,1,.2-.44l.06-.11V83c-.22-2.33-1.57-2.82-2.66-2.82H87l-.18,0a3.1,3.1,0,0,0-1,.63,5.6,5.6,0,0,0-1.89,1.23c0-.12,0-.24,0-.37l0-.14c0-.41-.26-1.1-1.44-1.19h0a1.51,1.51,0,0,0-1,.46l-.09.08,0,.11c-.14.4-.28.78-.42,1.16l-.26.32a14.74,14.74,0,0,1-2.87,2.81,11.61,11.61,0,0,1-4.33,2.16l0-.49A9.85,9.85,0,0,1,73.92,84l0-.18-.1-.18a3,3,0,0,1,.2-.44l.06-.11V83c-.22-2.33-1.57-2.82-2.66-2.82h-.61l-.18,0a3.1,3.1,0,0,0-1,.63,5.6,5.6,0,0,0-1.89,1.23c0-.12,0-.24,0-.37l0-.14c0-.41-.26-1.1-1.44-1.19h0a1.51,1.51,0,0,0-1,.46l-.09.08,0,.11a25.89,25.89,0,0,1-1.91,4.37,18.47,18.47,0,0,0-1.48,5v.12c.07.68.63,1.14,1.66,1.34l.1,0,.1,0a1,1,0,0,0,.56-.31,8.73,8.73,0,0,0,1.32-2.08l0-.11A3.42,3.42,0,0,1,66,88.22l.11,0,.09-.16a9.41,9.41,0,0,1,1.32-1.89l.13,0,.08-.12a8.56,8.56,0,0,1,.57-.77l.16-.12a29.1,29.1,0,0,1,2.88-2.47l0,.38c-.85,3.15-.93,3.92-.9,4.25a2.17,2.17,0,0,0,.13.6c.18,1.33,1.28,2.1,3.29,2.31H74a6.23,6.23,0,0,0,2-.65,20,20,0,0,0,2.54-1.69,13.2,13.2,0,0,0-.59,2.62v.12c.08.68.64,1.14,1.67,1.34l.1,0,.1,0a1,1,0,0,0,.56-.31,8.57,8.57,0,0,0,1.32-2.08l0-.11a3.42,3.42,0,0,1,.37-1.18l.11,0,.09-.16a9.41,9.41,0,0,1,1.32-1.89l.13,0,.08-.12a8.56,8.56,0,0,1,.57-.77l.16-.12a28,28,0,0,1,2.88-2.47l0,.38c-.85,3.15-.93,3.92-.9,4.25a2.17,2.17,0,0,0,.13.6C86.87,89.19,88,90,90,90.17h.13a6.23,6.23,0,0,0,2-.65A17.78,17.78,0,0,0,95.6,87a20.21,20.21,0,0,0,3-3.69C98.79,82.9,99.28,82.08,98.77,81.66Z"/><path class="cls-9" d="M33.24,23.8s4.31-.59,5-.71a51.41,51.41,0,0,1,5.15-.52c1,0,3-.46,3.57-.1a1.63,1.63,0,0,1,.79,1.35c.09.57-.43,3.48-.39,4a2.47,2.47,0,0,1-.58,1.8c-.42.33-3.59.49-4.7.26l-6.17-1.27c-.72-.14-2.25-.64-2.25-.64s2.14,2.62,2.69,3.4,2.17,3.29,2.34,3.61a7.75,7.75,0,0,1,.35.87,25.11,25.11,0,0,0-.72,2.5c-.15.85-1,2.24-1.16,2.88A15.52,15.52,0,0,1,36,43.52s-1.5-3.91-1.75-4.58-2.12-5.89-2.39-6.42-1.4-3.71-1.4-3.71L29.83,27a10.4,10.4,0,0,0-1.17-.61,7.49,7.49,0,0,1-1.43-1A8,8,0,0,0,24.74,25a21.45,21.45,0,0,1-3.59-.16c-.35-.05-4.2,0-4.56-.08s-4.27,0-4.27,0l-4.8.05A15.16,15.16,0,0,0,9,23.58c.35-.39,1.48-1.9,1.9-2.41s2.58-2.6,2.58-2.6,2.46.18,3.47.41,2,.46,2.73.67,1.85.47,1.85.47a40.66,40.66,0,0,1-3.86-4.66c-1.12-1.77-1.84-3.2-1.47-3.9s2.64-1.91,3.35-2.25a10.39,10.39,0,0,1,3-.72,1.69,1.69,0,0,1,1.38.62c.32.46,1.51,3.82,1.82,4.12S26.81,15.72,27,16s1,1.91,1.17,2.31a21.72,21.72,0,0,1,.9,2.41,3.23,3.23,0,0,0,.27.72,3.55,3.55,0,0,1,1.32.63,9.83,9.83,0,0,0,1.5,1.14,2.8,2.8,0,0,1,.94.18A.31.31,0,0,1,33.24,23.8Z"/><path class="cls-10" d="M22.79,10.42c1.62,3,3.53,5.11,5.61,8.37-.09-.21-.16-.38-.21-.47-.19-.4-1-2-1.17-2.31s-1-2.38-1.34-2.68-1.5-3.66-1.82-4.12a1.46,1.46,0,0,0-.93-.57A1.75,1.75,0,0,0,22.79,10.42Z"/><path class="cls-11" d="M21.25,19.86l.25.26s-1.16-.27-1.85-.47c-.45-.13-1-.27-1.64-.42,2,1.5,4.73,3.12,5.14,5.78a10.12,10.12,0,0,0,1.59,0,7.63,7.63,0,0,1,2.47.41c-.14-.39.06-.65-.21-1A25,25,0,0,0,21.25,19.86Z"/><path class="cls-11" d="M30.41,28.81l.35,1c1.63-.62,3.09-.09,4.55.3l-1.62-2A12.51,12.51,0,0,0,29.84,27Z"/><path class="cls-10" d="M47,22.54l-.11-.07c-.58-.36-2.56.12-3.57.1a51.41,51.41,0,0,0-5.15.52c-.6.11-4.3.62-4.88.7l0,0a46.6,46.6,0,0,1,7-.09C43.91,23.75,47.23,23.54,47,22.54Z"/><path class="cls-12" d="M34.64,23.66c-.14-.13-.68,0-.86.1.14.26,0,.44.21.61s.75.16,1,.38c-.19.18-.73,0-1,.17s-.64.26-.54.5.4.28.54.32l1.11.34c.56.18,1.13.27,1.69.45a6.28,6.28,0,0,0,.83.29c.23.05.47,0,.67.11a2,2,0,0,1-.92,0c-.54-.09-1.1-.15-1.64-.28a11.86,11.86,0,0,0-1.89-.47,2.52,2.52,0,0,0-.67,0,3,3,0,0,0-.46.06.55.55,0,0,0,0,.79.4.4,0,0,0,0,.26c-.28-.05-.41-.16-.65-.06s-.07.21-.4.14-.35-.17-.53-.21-.32,0-.46-.05c.22-.35.81-.57,1.12-.87a6.41,6.41,0,0,0,.84-1,5.37,5.37,0,0,0,.65-.84,1.75,1.75,0,0,1,.55-.71"/><path class="cls-12" d="M29.4,21.5c-.07,0-.16-.14-.22-.17s-.17,0-.23,0a.73.73,0,0,1-.4-.31,3,3,0,0,0-.72-.82c-.12.38.29.77.16,1.09,0,.13-.29.26-.41.33s0,.13-.15.16a1.7,1.7,0,0,1-.42-.22c-.25-.18-.35-.48-.55-.71s-.6-.62-.86-1-.63-.94-1-1.38c-.47-.65-.76-1.41-1.25-2-.13.28.1.6.19.86A6.54,6.54,0,0,0,24,18.57c.18.3.49.52.65.84s.21.57.31.85a3.89,3.89,0,0,0,.89,1.42c.21.22.7.77.7,1.07a4.75,4.75,0,0,0-.81-.33c-.24.27.51.4.25.6s-.57-.3-.76-.27a8.27,8.27,0,0,0,1.06.9,4.33,4.33,0,0,1,.43.53c.45.54.41-.49.52-.8a2.36,2.36,0,0,1,.65-1.15A2.08,2.08,0,0,1,29.4,21.5Z"/><path class="cls-13" d="M23,10.69a1.72,1.72,0,0,1,0-2c-.83-.56-3.25.38-4.08.8-.64.33-1.05.81-1.66,1.15A2.06,2.06,0,0,0,16,12.3a3.58,3.58,0,0,0,1,2.17c.19-.26,0-.45.14-.68s.32-.33.49-.48c.58-.52,1-.39,1.71-.63.38-.12.5-.36.87-.58s.88-.29,1.25-.51a3,3,0,0,1,.8-.42C22.54,11.05,22.77,11,23,10.69Z"/><path class="cls-13" d="M44.35,23.46a9.19,9.19,0,0,0,2.35-.41c.54-.19.58-.36.86.3a2.73,2.73,0,0,1,.17,1.14c0,1.07-.35,2.15-.42,3.21a3.92,3.92,0,0,1-.2,1.32c-.24.65-.32.63-1,.76a6.43,6.43,0,0,1-3,0c.41-.38,1.09-.2,1.17-1,0-.22-.17-.52-.17-.76a2,2,0,0,1,.27-.85,4.45,4.45,0,0,0,.32-1.58A13.08,13.08,0,0,1,44.35,23.46Z"/><path class="cls-13" d="M28.12,22.23c.86-1.8,3.1.35,4,.83.73.39,1.52.53,1.05,1.52-.73,1.54-.82-.07-1.58-.52a6.7,6.7,0,0,1-1.06-.55A5.26,5.26,0,0,0,29.8,23,15.42,15.42,0,0,1,28.12,22.23Z"/><path class="cls-13" d="M27.2,23.5a2.73,2.73,0,0,0,0,1.5c.18.6.72.71,1.22,1,1,.56,2.06,1.49,3,.42-.31-.21-.38.09-.67.05a2.36,2.36,0,0,1-.62-.29c.18-.24.21-.77-.09-.9s-.55.39-.76.69c-.69-.49.24-1.61-.49-2a2,2,0,0,0-.63,1C27.44,25,27.67,23.74,27.2,23.5Z"/><path class="cls-14" d="M27.69,22.69c.49-.65.76.3,1.08.45.08,0,.34-.13.46-.1s.21.16.32.2.56.24.82.35a4.75,4.75,0,0,1,1.19.89,3.88,3.88,0,0,1,.52.46c.17.22,0,.43.3.62-.48,1.18-1.87-.58-2.28-.93a10.94,10.94,0,0,0-1.48-.79,10.39,10.39,0,0,0-1.29-.65C27.33,23.1,27.35,23,27.69,22.69Z"/><path class="cls-14" d="M42.17,23.67c.95.18,2.11-.28,3-.05-.26.36-.13.44-.16.75s0,.45-.05.72c-.06.64.22,1.17.2,1.8,0,1-.85,2.15-.59,3.14a4.36,4.36,0,0,0-2-.27,4.43,4.43,0,0,1-1.78-.27c.45-.21.93-.86.86-1.25s-.31-.48-.36-.79a2.79,2.79,0,0,1,0-.91c.24-.53.8-.78.83-1.47S41.68,24.28,42.17,23.67Z"/><path class="cls-14" d="M24.83,13.56c-1.17-.53-1.23-2.46-2.2-3.22-.24.26-.26-.05-.51.05s-.29.25-.46.37a4.53,4.53,0,0,1-1.48.49c-.6.2-.82.58-1.34.86s-1.18.34-1.29.89c-.37-.06-.88.55-1,.85a12.18,12.18,0,0,0,1.06,1.68c.33.46.78,1.4,1.29,1.65a3.18,3.18,0,0,1,1-1.32c.42-.34.7-.27,1.14-.46s.3-.55.56-.79a8.75,8.75,0,0,1,.87-.46c.26-.17.44-.43.68-.57A2.31,2.31,0,0,1,24.83,13.56Z"/><path class="cls-14" d="M16.54,18.8a14.1,14.1,0,0,0-1.95-.29c-.39,0-.41-.05-.61.2a8.08,8.08,0,0,0-.66.88c-.2.3-.12.51-.38.81a5,5,0,0,0-.71.87,5.18,5.18,0,0,1-1.4,2.12,9.29,9.29,0,0,0-1.54,1.3,19.26,19.26,0,0,1,4.35.14c-.14-.7.33-1.1,1-1.4.32-.16.54-.09.66-.39,0-.08,0-.32,0-.42s.17-.32.22-.5a3.19,3.19,0,0,1,.27-1.05A10.51,10.51,0,0,0,16.09,20a4.37,4.37,0,0,1,.21-.58C16.45,19.16,16.75,19.33,16.54,18.8Z"/><path class="cls-14" d="M37.08,32.4c.48.34.63,1.12.94,1.61.15.22.33.42.48.66s.2.36,0,.59-.26.17-.34.28,0,.29-.14.41-.33.06-.47.18-.16.38-.22.57a4,4,0,0,1-.44,1.1c-.25.35-.74.55-1,.94-.1.19-.1.4-.19.6s-.24.3-.28.37c-.16.35-.13.75-.29,1.08-.42-.17-.62-1.28-.73-1.68a13.06,13.06,0,0,0-.73-1.84c-.09-.21-.41-.63-.29-.89.2-.45.55.21.89.08s.63-1.05.72-1.3,0-.26.24-.45a3.4,3.4,0,0,1,.34-.2c.22-.08.68-.1.82-.35s0-.46,0-.64A2.49,2.49,0,0,1,37.08,32.4Z"/><path class="cls-15" d="M31.89,22.93c-.94-.86-2.24-2.12-3.54-1.25a2.86,2.86,0,0,0-1.08,3.81c.06.1.24.05.2-.07a3.06,3.06,0,0,1-.17-2A2.87,2.87,0,0,1,29,21.67c1.13-.31,1.9,1,2.84,1.38a.08.08,0,0,0,.08-.12Z"/><path class="cls-15" d="M27.35,25.6a19.61,19.61,0,0,0,2.08,1.31,2,2,0,0,0,.89.33c.88.05,1.65-.87,2.21-1.42s1.46-1.48,1-2.28a1.41,1.41,0,0,0-1.75-.32.09.09,0,0,0,0,.15,2.78,2.78,0,0,0,.58.05c.13,0,.4,0,.51.06a1,1,0,0,1,.19,1.18,7.31,7.31,0,0,1-1.72,1.79,1.41,1.41,0,0,1-1.87.14,21.89,21.89,0,0,0-2.08-1.13c-.08,0-.13.1-.06.14Z"/><path class="cls-15" d="M28.42,25.92a6.4,6.4,0,0,1,.44-1.65s0-.08-.07-.05a2.4,2.4,0,0,0-.46,1.7,0,0,0,0,0,.09,0Z"/><path class="cls-15" d="M29.39,26.57a3.17,3.17,0,0,0,.2-.51c.07-.19.16-.37.21-.56a.07.07,0,0,0-.11-.07,1.74,1.74,0,0,0-.46,1.07c0,.09.11.17.16.07Z"/><path class="cls-15" d="M33.89,23.73s0,0,0,0,0,0,0,0Z"/><path class="cls-15" d="M33.26,23.75a20.45,20.45,0,0,0,3.59.07c1.55.05,3.1.12,4.65,0,1.33-.07,2.66-.22,4-.33a2.65,2.65,0,0,0,2-.76.15.15,0,0,0,0-.22A4.23,4.23,0,0,0,45,22.32c-1.25.1-2.51.13-3.76.26s-2.56.33-3.84.52-2.71.33-4,.65a.13.13,0,0,0,0,.25,26.88,26.88,0,0,0,3.21-.43c1.21-.18,2.41-.38,3.62-.53s2.5-.25,3.76-.31l1.37-.11c.27,0,1.43-.18,1.61.05s-2.22.62-2.52.65c-1.32.14-2.64.28-4,.31s-2.64,0-4,0c-1.07,0-2.16.18-3.22.06-.06,0-.07.08,0,.1Z"/><path class="cls-15" d="M30.82,27.21a73.07,73.07,0,0,0,9.56,2.52,27.26,27.26,0,0,0,4.23.38,3.19,3.19,0,0,0,2.61-.69c.14-.17-.09-.43-.25-.26-.81.89-2.35.67-3.45.62a25.5,25.5,0,0,1-4.36-.56c-1.35-.29-2.71-.6-4-.95a40.37,40.37,0,0,0-4.28-1.15,0,0,0,1,0,0,.09Z"/><path class="cls-15" d="M47.35,22.66c0,.43.15.82.17,1.25a9.72,9.72,0,0,1-.11,1.52,33.08,33.08,0,0,1-.51,3.84c0,.18.24.26.29.08a22.63,22.63,0,0,0,.56-3.75,6.15,6.15,0,0,0-.26-3,.07.07,0,0,0-.14,0Z"/><path class="cls-15" d="M29.36,21.41a5.43,5.43,0,0,0-1-2.47c-.7-1.14-1.25-2.33-2-3.42C25.14,13.8,23.43,11.87,23,9.75c0-.26-.22-.92.41-.76.13,0,.33.45.4.56.18.31.34.64.49,1,.51,1.12,1,2.25,1.52,3.37s1.19,2.52,1.83,3.76.91,2.57,1.51,3.8c.1.22.4,0,.31-.17-.64-1.5-1.06-3-1.84-4.41s-1.43-2.92-2.1-4.4C25.3,12,24,8,22.91,8.57c-1.31.72,1.2,4.23,1.61,4.82.86,1.27,1.86,2.46,2.64,3.79.39.65.73,1.33,1.13,2a5.43,5.43,0,0,1,.92,2.25c0,.09.15.1.15,0Z"/><path class="cls-15" d="M23.18,8.64c-1.7-.54-3.83.54-5.26,1.38-.7.4-1.64.9-1.89,1.74A3.15,3.15,0,0,0,16.57,14a19.69,19.69,0,0,0,4.34,5.74c1,.84,2.09,1.49,3.11,2.27l1.52,1.18c.49.38.81,1,1.36,1.27a.15.15,0,0,0,.15-.25c-.39-.3-.63-.72-1-1s-.8-.6-1.18-.91c-.81-.65-1.67-1.2-2.51-1.8a16.7,16.7,0,0,1-4.58-5.07,18.77,18.77,0,0,1-1.21-2.08,1.81,1.81,0,0,1,.14-2.11,5.11,5.11,0,0,1,1.23-.88,9.44,9.44,0,0,1,5.23-1.6s.06-.06,0-.07Z"/><path class="cls-15" d="M27.6,22.55c-.8-1.05-1.72-2-2.47-3.1s-1.19-2.15-1.86-3.17c-.06-.09-.22-.05-.19.07a13.63,13.63,0,0,0,2,3.52,11.79,11.79,0,0,0,2.47,2.75c.05,0,.09,0,.06-.07Z"/><path class="cls-15" d="M32.66,25.65a20.56,20.56,0,0,0,3.63,1,4.11,4.11,0,0,0,2.49.2s0-.09,0-.08A8.86,8.86,0,0,1,36,26.37c-1.1-.28-2.22-.48-3.29-.86-.08,0-.14.11-.06.14Z"/><path class="cls-15" d="M22.06,20.26A24.15,24.15,0,0,0,17.89,19a18.56,18.56,0,0,0-4.45-.54c-.12,0-.16.19,0,.22,1.51.3,3.05.27,4.56.63A36.69,36.69,0,0,0,22,20.36s.08-.08,0-.1Z"/><path class="cls-15" d="M13.47,18.46a3.87,3.87,0,0,0-1.2,1.15c-.52.6-1.09,1.16-1.63,1.75a36.91,36.91,0,0,1-3.19,3.31c-.08.07,0,.21.12.16a12.6,12.6,0,0,0,3-3c.95-1.11,1.94-2.2,2.92-3.29a0,0,0,0,0,0-.05Z"/><path class="cls-15" d="M7.39,24.93c3.31-.23,6.66,0,10-.06,1.67,0,3.34.1,5,.23.82.07,1.65.16,2.47.18a7.69,7.69,0,0,1,2.34.26c.14,0,.23-.17.11-.23-1.17-.58-2.81-.33-4.08-.44-1.83-.15-3.66-.31-5.5-.29s-3.45.12-5.18.07a27.68,27.68,0,0,0-5.15.18c-.06,0,0,.11,0,.1Z"/><path class="cls-15" d="M29.83,27.15a13.07,13.07,0,0,0,1,3.39c.55,1.4,1.13,2.79,1.66,4.21,1.07,2.87,2.36,5.64,3.23,8.58a.11.11,0,0,0,.22,0c-.55-2.86-2-5.57-3.07-8.27s-2-5.23-3-7.87c0,0-.07,0-.07,0Z"/><path class="cls-15" d="M33.43,28.05a34.58,34.58,0,0,1,5.49,7.73.11.11,0,0,0,.21-.08A6,6,0,0,0,38.21,34c-.43-.7-.89-1.36-1.37-2a19.76,19.76,0,0,0-3.29-4,.09.09,0,0,0-.12.12Z"/><path class="cls-15" d="M38.88,35.7a31.87,31.87,0,0,0-1.11,3.56,32.69,32.69,0,0,1-1.9,4.17c0,.11.1.2.16.1A24,24,0,0,0,39,35.74c0-.05-.07-.09-.09,0Z"/><path class="cls-16" d="M57.39,25.87a4.16,4.16,0,0,1,2.5,1.59,4.33,4.33,0,0,1,.53,1.61c-.32,1.12-1.35,2.26-3.08,3.39a19.57,19.57,0,0,1-6.06,2.46,5.56,5.56,0,0,0-1.83.41,4.4,4.4,0,0,1-.63-.08l-2.43.34a.64.64,0,0,0-.29-.09h-.16c-.23,0-.79.83-1.69,2.5A6,6,0,0,0,43,40.19c-.17,0-.38.41-.62,1.22A18.41,18.41,0,0,0,41,44.35a15.72,15.72,0,0,0-1.66,3.22c-.2,0-.45.51-.75,1.37A9.57,9.57,0,0,0,37,51.62a1.71,1.71,0,0,0-.36.38h-.15q5.51.87,8.69,1.44l.33-.07.87.17.55-.1a10.68,10.68,0,0,1,1.83.17,28.61,28.61,0,0,0,5.94-.7A.56.56,0,0,0,55,53h0a1.07,1.07,0,0,1,.82-.53h.31c0,.25,0,.37-.07.37h-.07c0-.24.26-.37.77-.37h.55a3.86,3.86,0,0,1-1.83,1.33,13.39,13.39,0,0,1-3,1H52V55a1,1,0,0,1-.55-.1,12.68,12.68,0,0,0-2.57.44c-.5,0-.9-.08-1.21-.08h-.09a3,3,0,0,0-.65.08A16.16,16.16,0,0,1,44.13,55l-.31.1-2.17-.39v.07L37.88,54,36,53.68l-.2.1a.86.86,0,0,0-.33-.1h-.08a4.42,4.42,0,0,0-.69,1.11,2.6,2.6,0,0,0-.7,1c-.1,0-1.06,1-2.89,3a20.16,20.16,0,0,1-2.84,1.85q0,.39-1.56,1.08-3.59,2-5.61,2s-.69.14-2,.34a1.91,1.91,0,0,0-.89-.17h-.08c.1,0,.15.06.15.19l-.46-.19h-.19a8.44,8.44,0,0,1-5.39-2.48,9.83,9.83,0,0,1-1.52-2.77l.1-.65v-.79q.51-1.23.51-1H11.1q.68-1.68,1.23-1.68c0-.39.54-.84,1.63-1.35,0-.54,1.46-1.18,4.38-1.9a33.48,33.48,0,0,1,5.51-.67l.41.07.5-.07c.65,0,1.22.07,1.71.07h.27l.67,0-.1,0q4.62.62,7.34,1.09c1.51-1.83,2.26-3,2.26-3.47a6.16,6.16,0,0,0,1-2.09q.52-.8,2.81-5.82a18.18,18.18,0,0,0,2-3.68c.66-.6,1-1,1-1.3v-.1a15,15,0,0,1-4.35-1.78c-3.42-2.32-5.13-4.19-5.13-5.58l.82-.22c.21,0,.84.62,1.9,1.86q4.23,3.59,7,3.94l.84.17a22.66,22.66,0,0,1,6.4-5.92,11,11,0,0,1,3.51-1.49l.36.05c.05-.15.31-.28.77-.39l.36.07A3.06,3.06,0,0,0,57.39,25.87ZM12.57,57.41c0,2.18,1.27,3.71,3.82,4.57l1.95.41a.77.77,0,0,1,.39-.07l.26,0s1.08-.22,3.25-.6a6.68,6.68,0,0,1,1.49-.53,26.51,26.51,0,0,0,4.67-2.7,39.93,39.93,0,0,0,4.21-3.8H33v.17H32.8v.15s-.08.07-.24.07v-.41a7,7,0,0,0,1.11-1.42v.1c-1.69-.28-3.34-.48-5-.61,0,0,.06,0,.17,0a.7.7,0,0,0-.22.07,20.26,20.26,0,0,1-3-.41c-.05,0-.07.11-.07.29a4.06,4.06,0,0,0-.85-.29q-10.1,0-11.88,4.28ZM47,33.88s0,0-.1,0l2.29-.27a.75.75,0,0,0,.36.1A19.47,19.47,0,0,0,54.77,32q3.56-1.77,3.56-2.67.14,0,.33-.33v-.82c-.09-.23-.68-.48-1.75-.75h-.2a13,13,0,0,0-7,3.68C47.86,32.74,47,33.68,47,33.88ZM57.39,52.1c.25,0,.38.2.38.53A2.26,2.26,0,0,1,56.4,53C56.64,52.39,57,52.1,57.39,52.1Z"/><path class="cls-16" d="M63,38.82A3.51,3.51,0,0,1,65.18,40c.84,0,1.25.29,1.25.87.07,0,.1,0,.1.09a8.94,8.94,0,0,0-1.35,4.14v.29q.19.87.48.87h.58q1.35,0,4.52-3.66c0-.18.45-.56,1.35-1.16a1.77,1.77,0,0,1,.77-1H73a1.1,1.1,0,0,0,.19.57,10.3,10.3,0,0,1-1.71,3.13c-2.13,2.79-3.94,4.19-5.41,4.19a3.19,3.19,0,0,1-3-2.31v-.2h-.29c-2.35,2-4.17,3-5.49,3H57a2.34,2.34,0,0,1-2.4-2v-.2q0-2.61,3.94-5.48l2.7-1.73C61.24,39.07,61.81,38.91,63,38.82Zm-6.26,7.41v.67c0,.13.08.19.2.19h.19q1.76,0,4.71-2.79c1.22-1.25,1.83-2.21,1.83-2.89v-.09c0-.77-.29-1.16-.86-1.16a12.83,12.83,0,0,0-5,3.66A5.9,5.9,0,0,0,56.71,46.23Z"/><path class="cls-16" d="M85,30c1.09.31,1.63.75,1.63,1.33A6.94,6.94,0,0,1,85,34.8l.12.21a20.06,20.06,0,0,1-4.07,6.57c-1.17,1.3-1.75,2.14-1.75,2.53v.31c0,1.25.44,1.88,1.32,1.88,1.88.08,4.23-1.07,7.07-3.44,1.57-1.72,2.48-2.58,2.72-2.58a5.17,5.17,0,0,1-1.18,2.77A28.43,28.43,0,0,1,85.9,46c-2,1.46-3.67,2.19-4.93,2.19a4.31,4.31,0,0,1-3.73-2.31,12.28,12.28,0,0,1-4.38,2.31H71.53q-2.28-.63-2.28-2.31a.8.8,0,0,1-.12-.43c.37-1.62,1.75-3.34,4.16-5.15a6.55,6.55,0,0,1,3.39-1.2,5.34,5.34,0,0,0,1.33.33h.21a13,13,0,0,1,2.07-4.59,8.87,8.87,0,0,1,1.88-2.75C83.37,30.66,84.32,30,85,30ZM71.32,45.31v.75q0,.36,1.2.45a8.81,8.81,0,0,0,3.83-2.31,3.76,3.76,0,0,0,.89-1.32,2.76,2.76,0,0,1-.56-1.73v-.46a.91.91,0,0,1-.33-.09c-1.34,0-2.9,1.24-4.7,3.73A3,3,0,0,0,71.32,45.31Zm9.09-6.13h.1c.27-.07,1-1,2.21-2.87L84.36,33v-.43q-1.47.33-4,6.23Z"/><path class="cls-16" d="M116.19,51.85l-.27-.21h-.53a.68.68,0,0,0-.72.43,1.33,1.33,0,0,1-.65-.21,22.22,22.22,0,0,1-3,.64,3.07,3.07,0,0,0-.44-.12l-1.27.44h-.94l-1.27.09c0-.06,0-.09-.1-.09a1.82,1.82,0,0,0-1.06.53h-.22l-.74-.12-.44.43c-.12,0-.19-.1-.19-.31h-.12a1.07,1.07,0,0,0-.84.41c-2.47.27-3.7.56-3.7.86h-.1l-.31-.21a8.15,8.15,0,0,0-1.81.52.11.11,0,0,0-.12-.12H97a3.46,3.46,0,0,1-.94.44l-.65-.1a35.56,35.56,0,0,0,.43-4.67.77.77,0,0,1-.12-.43,1.7,1.7,0,0,1,.22-.62c-.06-1-.1-1.75-.1-2.12l.1-.53a.09.09,0,0,1-.1-.1,23.13,23.13,0,0,1,.85-6.47,1.54,1.54,0,0,0-1-1.06h-.19a1.15,1.15,0,0,1-.65.34,8.67,8.67,0,0,1-1.15,3,16.25,16.25,0,0,1-2.24,3.17,7.76,7.76,0,0,1-3.06,2.43l-.09-.53v-.21c0-1,.77-3.06,2.31-6.35,0-.56-.21-.85-.63-.85h-.12c-.46,0-1.16,1.24-2.09,3.71-.48,1.68-.84,2.53-1.06,2.53V47l-.12.74c.08,0,.12,0,.12.1s-.15.1-.22.31a1.85,1.85,0,0,0,2,1.8,2.65,2.65,0,0,0,2.24-1.58c.33,0,1.35-1.17,3-3.49h.12a4.71,4.71,0,0,0,.2.84l-.2.75v1.05l.53.63L94,49.21l.1.43-.2.31v.32l.1.21h-.1a3.88,3.88,0,0,0,.1.75.81.81,0,0,1-.1.31L94,52l-.1.52.1.2a.79.79,0,0,1-.1.33l.1.53c-.35.26-.53.44-.53.53l.1.63v.53c0,.54-.39.86-1.16.94A16.12,16.12,0,0,0,88,57.68q-1.08,0-9,3.49a13.21,13.21,0,0,1-2.11,1.17,18.85,18.85,0,0,0-4.43,3.28c-1.56,1.31-2.33,2.62-2.33,3.92A4.91,4.91,0,0,0,73.07,74a10.9,10.9,0,0,0,4.77,1.49h.74a11.59,11.59,0,0,0,3.81-.75,16.14,16.14,0,0,0,7.84-6.45q1.83-1.87,3.9-7.84c.27-1.27.48-1.9.65-1.9a1.26,1.26,0,0,1,1-1.37,22,22,0,0,0,3.81-1.06h1.17q3.81-.95,12.49-2.12l.19.12,2.6-.49A7.92,7.92,0,0,1,116.19,51.85ZM93.4,58.42c-.35,0-.53.25-.53.75a.68.68,0,0,1,.1.31.19.19,0,0,1-.22.22.77.77,0,0,0,.12.31c0,.15-.07.22-.21.22-.11.42-.22.62-.31.62,0,.71-.22,1.06-.65,1.06v.53a.09.09,0,0,1-.1.1c0,.64-.19,1-.43,1s-.28.39-.53,1.15a.93.93,0,0,0,.21.34v.31q-.52,0-1,.75c-.46.91-.78,1.37-.94,1.37a1.25,1.25,0,0,1-.62,1.16c-1.06.57-1.59,1.1-1.59,1.58a4.66,4.66,0,0,0-2,1.9c-.85.13-1.28.41-1.28.85h-.31l-.22-.1L80.7,74h-.31l-.53-.1c0,.11-.57.26-1.71.43-3.26-.29-5.23-1.59-5.92-3.92V70q0-3.14,8.25-7.51a78.31,78.31,0,0,1,12.59-4.55h.12a.19.19,0,0,1,.21.22Zm12-4.54a.8.8,0,0,0-.43-.12v-.2h.31l.22.1Z"/><circle class="cls-2" cx="101.18" cy="43.28" r="1.84"/></g></g></g></svg>