<svg xmlns="http://www.w3.org/2000/svg" viewBox="0 0 299.29 44.4"><defs><style>.cls-1{fill:#58595b;opacity:0.9;}.cls-2{fill:#1b75bc;}.cls-3{fill:#fbb040;}.cls-4{fill:#ef4136;}.cls-5{fill:#7d4e24;}.cls-6{fill:#6d4220;}.cls-7{fill:#a06232;}.cls-8{fill:#9e6b57;}.cls-9{fill:#c59575;}.cls-10{fill:#fff;}.cls-11{fill:#f1f2f2;}</style></defs><title>pankaata-logo</title><g id="Layer_2" data-name="Layer 2"><g id="Layer_1-2" data-name="Layer 1"><path class="cls-1" d="M299.29,7.36a3.84,3.84,0,0,1-3.83,3.83,3.69,3.69,0,0,1-2.7-1.13,3.67,3.67,0,0,1-1.13-2.7,3.69,3.69,0,0,1,1.13-2.71,3.83,3.83,0,0,1,5.41,0,3.68,3.68,0,0,1,1.12,2.71m-.84,0a2.88,2.88,0,0,0-.88-2.12,2.85,2.85,0,0,0-2.11-.89,2.88,2.88,0,0,0-2.11.89,2.91,2.91,0,0,0-.87,2.12,2.92,2.92,0,0,0,.87,2.12,2.87,2.87,0,0,0,2.11.88,2.84,2.84,0,0,0,2.11-.88A2.89,2.89,0,0,0,298.45,7.36Zm-.91,1.81h-1.16l-1.11-1.4h-.36v1.4H294V5.36h1.39a5,5,0,0,1,.62,0,1.38,1.38,0,0,1,.47.16,1,1,0,0,1,.37.35,1,1,0,0,1,.12.52,1,1,0,0,1-.23.69,1.51,1.51,0,0,1-.59.42ZM296,6.49a.46.46,0,0,0,0-.21.37.37,0,0,0-.16-.17.88.88,0,0,0-.23-.07l-.33,0h-.28V7.1h.21a1.48,1.48,0,0,0,.38,0,.56.56,0,0,0,.27-.11.4.4,0,0,0,.14-.18A.61.61,0,0,0,296,6.49Z"/><path class="cls-2" d="M106.45,16.28a13.29,13.29,0,0,0-8-2.62,13.13,13.13,0,0,0-9.75,4.12,13.55,13.55,0,0,0-4,9.89,13.58,13.58,0,0,0,4,9.9A13.54,13.54,0,0,0,106.45,39v2.37h5.78V13.94h-5.78ZM104.1,33.51a7.92,7.92,0,0,1-11.34,0,8.5,8.5,0,0,1,0-11.67,7.92,7.92,0,0,1,11.34,0,8.05,8.05,0,0,1,2.35,5.83A8.08,8.08,0,0,1,104.1,33.51Z"/><path class="cls-3" d="M198.55,16.28a13.31,13.31,0,0,0-8-2.62,13.13,13.13,0,0,0-9.75,4.12,13.55,13.55,0,0,0-4,9.89,13.58,13.58,0,0,0,4,9.9A13.54,13.54,0,0,0,198.55,39v2.37h5.78V13.94h-5.78ZM196.2,33.51a7.92,7.92,0,0,1-11.34,0,8.5,8.5,0,0,1,0-11.67,7.92,7.92,0,0,1,11.34,0,8.05,8.05,0,0,1,2.35,5.83A8.08,8.08,0,0,1,196.2,33.51Z"/><path class="cls-3" d="M230.26,16.35a13.31,13.31,0,0,0-8-2.61,13.16,13.16,0,0,0-9.74,4.11,13.56,13.56,0,0,0-4,9.9,13.55,13.55,0,0,0,4,9.89,13.54,13.54,0,0,0,17.75,1.47v2.37H236V14h-5.78Zm-2.35,17.23a7.92,7.92,0,0,1-11.34,0,8.5,8.5,0,0,1,0-11.67,7.92,7.92,0,0,1,11.34,0,8.06,8.06,0,0,1,2.35,5.84A8.05,8.05,0,0,1,227.91,33.58Z"/><path class="cls-4" d="M284.16,14v2.34a13.6,13.6,0,0,0-17.75,1.5,13.55,13.55,0,0,0-4,9.9,13.55,13.55,0,0,0,4,9.89,13.54,13.54,0,0,0,17.75,1.47v2.37H290V14Zm-2.34,19.57a7.92,7.92,0,0,1-11.34,0,8.11,8.11,0,0,1-2.32-5.83,8.11,8.11,0,0,1,2.32-5.84,7.92,7.92,0,0,1,11.34,0,8.09,8.09,0,0,1,2.34,5.84A8.08,8.08,0,0,1,281.82,33.58Z"/><path class="cls-2" d="M79.34,6.34a13.26,13.26,0,0,0-4.09-2.75,12.47,12.47,0,0,0-5-1H55.71V42.49h7.1V28.32h7.43a12.47,12.47,0,0,0,5-1,13.11,13.11,0,0,0,4.09-2.76,12.93,12.93,0,0,0,2.75-4.08,12.84,12.84,0,0,0,0-10A13.09,13.09,0,0,0,79.34,6.34ZM75.57,17.7a5.53,5.53,0,0,1-1.24,1.84,5.78,5.78,0,0,1-1.85,1.24,5.6,5.6,0,0,1-2.24.45H62.81V9.66h7.43A5.77,5.77,0,0,1,76,15.44,5.63,5.63,0,0,1,75.57,17.7Z"/><path class="cls-2" d="M140.58,15.94a9.94,9.94,0,0,0-3.64-2.68,12.83,12.83,0,0,0-7.33-.66,11.59,11.59,0,0,0-2.5.79A9.09,9.09,0,0,0,125,14.7h0a7.72,7.72,0,0,0-.33-.82,8.24,8.24,0,0,0-.45-.75l-.27-.39h-5.87V42.49h7.1V22.94a2.37,2.37,0,0,1,.56-1.32,4.74,4.74,0,0,1,1.49-1.23,9.58,9.58,0,0,1,2.3-.88,11.43,11.43,0,0,1,2.8-.33,3.46,3.46,0,0,1,3.16,1.56,9.17,9.17,0,0,1,1.13,5V42.49h7.09V25.7a17.89,17.89,0,0,0-.8-5.54A12.24,12.24,0,0,0,140.58,15.94Z"/><path class="cls-3" d="M165.38,27.17l.16-.2L176,12.75H170.6a6.91,6.91,0,0,0-3.14.69,6,6,0,0,0-2.28,2.07l-7,9.46h0a5.18,5.18,0,0,1-.57.67,3.93,3.93,0,0,1-.49.41l-.34.19h-.53V2.59h-7.1v39.9h7.1V27.76l.05,0a1.85,1.85,0,0,0,.45.3,2.34,2.34,0,0,1,.37.22,4,4,0,0,1,.5.4,4.39,4.39,0,0,1,.56.63l7.68,10.32a5.84,5.84,0,0,0,2.31,2.11,6.9,6.9,0,0,0,3.13.7h5.44L165.52,27.34Z"/><path class="cls-4" d="M257.83,36.45a5.29,5.29,0,0,0-4.54-.39l-.52.07a.63.63,0,0,1-.35-.09,1,1,0,0,1-.32-.32,1.64,1.64,0,0,1-.26-.55,1.9,1.9,0,0,1-.1-.57V19.67h7.74V12.79h-7.74V2.66h-7v.9c0,2.06,0,4.1,0,4.38v4.83c-3.83.09-4.65,1.73-4.65,3.12v3.78h4.65V34.6a9.62,9.62,0,0,0,.56,3.31,7.82,7.82,0,0,0,1.63,2.66,7.4,7.4,0,0,0,2.57,1.76,8.58,8.58,0,0,0,5.25.39,14.59,14.59,0,0,0,2-.59,12.66,12.66,0,0,0,1.86-.87A7.1,7.1,0,0,0,260,40.17l.54-.54-1.07-1.56A6,6,0,0,0,257.83,36.45Z"/><path class="cls-5" d="M39.9,30.74,38.51,32l2.75,4.63a28.8,28.8,0,0,1-21.18,7.75l-.6-4.94-2.61-1Z"/><path class="cls-6" d="M37.34,33.56s-3.09,2.16-17.74,6.25l.76-.57,2.3-3.63Z"/><path class="cls-7" d="M39.63,3.91S42,30.07,38.54,32.7c-.34.25-.74.55-1.2.86-4.21,2.89-13.17,7.62-20.46,4.95,0,0-3.1-1.39-16.33-21.18C.55,17.33,26.89,3.62,39.63,3.91Z"/><path class="cls-5" d="M.55,17.33c1,3.08,13.11,2,23.67-1.44S40.64,7,39.63,3.91s-10-4-23.18.33C5.89,7.73-.46,14.26.55,17.33Z"/><path class="cls-8" d="M1.61,14.92c1,2.93,10.69,1.82,20.73-1.48s15.85-7,14.88-10c-.17-.54-.55-2.36-1.15-2.69C33.46-.71,27,1.2,18.85,3.89c-8.63,2.85-16.34,6.63-17.6,9.54C1.05,13.9,1.47,14.51,1.61,14.92Z"/><path class="cls-9" d="M1.17,13.58c1,2.93,10.69,1.82,20.73-1.48s15.85-7,14.88-10-8.33-2.88-18.37.42S.2,10.65,1.17,13.58Z"/><path class="cls-10" d="M38.19,1.5C42.63,7.52,30.94,12.42,27,14a70.31,70.31,0,0,1-11.72,3.36,46.47,46.47,0,0,1-8.78,1.11c-2.22,0-4.46-.4-5.74-2.39a9,9,0,0,1-.68-1.31c-.29-.69.74-1.23,1-.54,1,2.48,2.89,3.09,5.45,3.08a41.74,41.74,0,0,0,8.1-1,69.49,69.49,0,0,0,11.07-3,38.75,38.75,0,0,0,8.9-4.55c2-1.42,4.6-3.91,2.74-6.43-.44-.59.4-1.39.85-.79Z"/><path class="cls-10" d="M35.76,7a3,3,0,0,1,1.41,1.82c.13.35-.44.47-.56.12a2.5,2.5,0,0,0-1.16-1.45c-.33-.18,0-.67.31-.49Z"/><path class="cls-10" d="M36.63,6.32A3.1,3.1,0,0,1,38,8.14c.13.35-.44.47-.56.12a2.54,2.54,0,0,0-1.16-1.45c-.33-.18,0-.67.31-.49Z"/><path class="cls-10" d="M29.24,11.47c.24.67.6,1.29.84,2,.12.35-.45.47-.57.12-.24-.68-.6-1.3-.84-2-.12-.35.45-.47.57-.12Z"/><path class="cls-10" d="M28.51,12.08c.16.51.33,1,.5,1.52s-.45.48-.57.12-.33-1-.5-1.52c-.12-.35.45-.47.57-.12Z"/><path class="cls-10" d="M20.4,14.75a9.86,9.86,0,0,0,.5,2.08c.12.35-.45.47-.56.12a8.77,8.77,0,0,1-.5-2.08c0-.37.53-.49.56-.12Z"/><path class="cls-10" d="M19.17,15l.66,2c.12.36-.45.48-.56.13-.22-.68-.45-1.35-.67-2-.12-.35.45-.47.57-.12Z"/><path class="cls-10" d="M11,16.73a1.52,1.52,0,0,0,0,1.79c.18.32-.34.59-.52.27a2.09,2.09,0,0,1,.08-2.37c.21-.31.7,0,.49.31Z"/><path class="cls-10" d="M9.72,17a5.17,5.17,0,0,0,.33,1.5c.12.35-.45.47-.57.12A5.15,5.15,0,0,1,9.15,17c0-.37.57-.34.57,0Z"/><path class="cls-10" d="M3.61,16.8c-.6.35-1,.76-.75,1.48.11.35-.46.47-.57.12a1.76,1.76,0,0,1,1.06-2.11c.32-.19.59.32.26.51Z"/><path class="cls-10" d="M2.15,16.26c-.6.34-1,.76-.75,1.47.11.36-.46.48-.57.12a1.76,1.76,0,0,1,1.06-2.11c.32-.19.59.33.26.52Z"/><path class="cls-10" d="M40.58,29.59c-3.16,3.71-7.83,6-12.35,7.64a30.33,30.33,0,0,1-7,1.61,10.14,10.14,0,0,1-5.18-.51c-.67-.3-.33-1.41.35-1.1a9.58,9.58,0,0,0,4.84.46,30.47,30.47,0,0,0,6.41-1.49c4.44-1.49,9-3.85,12.1-7.46.48-.57,1.27.28.79.85Z"/><path class="cls-10" d="M37,31c.11.83.33,1.64.44,2.47,0,.37-.52.5-.57.12-.11-.83-.33-1.64-.44-2.47,0-.37.52-.49.57-.12Z"/><path class="cls-10" d="M36.13,31.84a10.12,10.12,0,0,1,.39,2.38c0,.37-.55.34-.58,0A9.38,9.38,0,0,0,35.56,32c-.11-.36.46-.48.57-.12Z"/><path class="cls-10" d="M30.67,34.57c.2.62.41,1.24.61,1.86.12.35-.45.47-.57.12-.2-.62-.4-1.24-.61-1.86-.11-.35.45-.47.57-.12Z"/><path class="cls-10" d="M31.63,34.07a10.41,10.41,0,0,0,.55,2.25c.12.35-.45.47-.57.12a10.27,10.27,0,0,1-.55-2.25c0-.37.53-.49.57-.12Z"/><path class="cls-10" d="M23.69,36.68a7,7,0,0,0,.81,2.46c.18.33-.34.59-.51.27a7.37,7.37,0,0,1-.86-2.61c-.05-.37.51-.49.56-.12Z"/><path class="cls-10" d="M22.68,37a10.14,10.14,0,0,0,.55,2.25c.12.36-.45.48-.56.12a9.63,9.63,0,0,1-.56-2.25c0-.36.54-.49.57-.12Z"/><path class="cls-10" d="M17.9,36.71a13.2,13.2,0,0,0,.61,2.42c.12.36-.45.48-.56.12a12.44,12.44,0,0,1-.61-2.42c-.05-.36.51-.49.56-.12Z"/><path class="cls-10" d="M16.9,36.79c.23.69.53,1.36.77,2.06.12.35-.45.47-.57.12-.23-.7-.53-1.37-.77-2.06-.12-.36.45-.47.57-.12Z"/><path class="cls-10" d="M37.35,7.86c.47,4.11,0,8.4-.21,12.5a106.05,106.05,0,0,1-1,11.55c-.07.37-.65.34-.58,0a103.34,103.34,0,0,0,1-11c.26-4.22.73-8.68.25-12.9,0-.37.52-.5.57-.13Z"/><path class="cls-10" d="M35.83,32c-1.07-3.28-2-6.6-3-9.89-.58-1.83-1.2-3.65-1.91-5.44a14.75,14.75,0,0,0-2-3.82c-.24-.29.19-.69.42-.4,2,2.47,2.89,6,3.85,9,1.13,3.47,2.06,7,3.19,10.47.12.35-.45.47-.56.12Z"/><path class="cls-10" d="M29.5,13.64c.35,7.09,1,14.15,1.64,21.21,0,.37-.54.5-.57.12-.61-7.11-1.29-14.22-1.65-21.36,0-.37.56-.34.58,0Z"/><path class="cls-10" d="M19.72,16.08c3.75,6.31,7.76,12.53,11.24,19,.18.33-.34.6-.52.27C27,28.87,23,22.66,19.2,16.35c-.19-.33.33-.59.52-.27Z"/><path class="cls-10" d="M19.93,16.71c.88,6.94,2.08,13.85,2.73,20.81,0,.37-.53.49-.57.12-.65-7-1.85-13.87-2.73-20.8,0-.37.52-.5.57-.13Z"/><path class="cls-10" d="M37.87,8.32c.74,3.35,1.11,6.81,1.54,10.21s.88,7.09,1.06,10.65c0,.37-.55.34-.57,0-.19-3.61-.65-7.22-1.1-10.8-.41-3.3-.78-6.66-1.5-9.91a.29.29,0,0,1,.57-.12Z"/><path class="cls-10" d="M22.83,38c-4-6.92-8.4-13.59-12.47-20.47-.19-.32.32-.59.51-.27,4.07,6.88,8.47,13.56,12.47,20.47.19.32-.32.59-.51.27Z"/><path class="cls-10" d="M10.63,17.65c2.24,6.79,4.8,13.47,7,20.26.12.36-.45.47-.56.12-2.24-6.79-4.8-13.47-7-20.26-.12-.35.45-.47.56-.12Z"/><path class="cls-10" d="M1.5,17.21c2.51,3.56,5,7.12,7.57,10.65S13.92,35,16.93,38c.26.26-.16.65-.43.39-3-3-5.38-6.71-7.86-10.13Q4.77,22.89,1,17.47c-.21-.3.3-.56.51-.26Z"/><path class="cls-10" d="M39.67,28.55a12.74,12.74,0,0,0,.75,1.92.29.29,0,0,1-.52.27,15.14,15.14,0,0,1-.8-2.06c-.12-.36.45-.48.57-.13Z"/><path class="cls-10" d="M37.82,8A55.67,55.67,0,0,1,40,18.54a42.12,42.12,0,0,1,.66,10c0,.37-.62.34-.58,0,.35-3.45-.23-6.87-.7-10.28A53.9,53.9,0,0,0,37.26,8.11c-.12-.35.44-.47.56-.12Z"/><path class="cls-10" d="M37.38,8.4a24.33,24.33,0,0,1-.51,5.31,56.26,56.26,0,0,0-.57,6.09c-.09,1.93.05,3.85,0,5.78a29.2,29.2,0,0,0,0,6.2.29.29,0,0,1-.57.12,24.6,24.6,0,0,1-.08-5.56c.12-2,0-4.09.06-6.13a52.77,52.77,0,0,1,.52-6.15,27.26,27.26,0,0,0,.57-5.69c0-.37.56-.34.58,0Z"/><path class="cls-10" d="M29.63,13.49a58.79,58.79,0,0,0,3.58,9.11c1.26,2.92,2,6,3.46,8.89a.29.29,0,0,1-.52.26c-1.42-2.84-2.21-6-3.45-8.88s-2.84-6-3.64-9.26c-.09-.36.48-.48.57-.12Z"/><path class="cls-10" d="M29.5,13.64C29.88,20.86,31.36,28,32,35.17c0,.36-.54.49-.57.12-.63-7.25-2.12-14.4-2.5-21.68,0-.37.56-.34.58,0Z"/><path class="cls-10" d="M20.52,15.38c3.77,6.39,7,13.15,10.44,19.7a.29.29,0,0,1-.52.27C27,28.8,23.77,22,20,15.65c-.19-.33.33-.59.52-.27Z"/><path class="cls-10" d="M19.93,16.71c.91,7.06,3.11,13.93,3.8,21,0,.37-.54.49-.57.12-.68-7.09-2.89-14-3.8-21-.05-.37.52-.5.57-.13Z"/><path class="cls-10" d="M22.83,38c-4.08-7-9.21-13.33-13.35-20.3-.2-.33.32-.59.51-.27,4.14,7,9.27,13.29,13.35,20.3.19.32-.32.59-.51.27Z"/><path class="cls-10" d="M9.9,17.89C12.16,24.7,15,31.31,17.24,38.12c.12.35-.45.47-.56.12C14.42,31.43,11.59,24.83,9.34,18c-.12-.35.45-.47.56-.12Z"/><path class="cls-10" d="M2.72,17.12c2.55,3.64,4.92,7.42,7.36,11.13q2,3.09,4.12,6.14A24.61,24.61,0,0,0,16.93,38c.26.26-.16.65-.43.39A23.28,23.28,0,0,1,13.94,35c-1.39-2-2.73-4-4.06-6-2.55-3.87-5-7.81-7.67-11.61-.22-.31.3-.57.51-.27Z"/><path class="cls-11" d="M38.73,36.87a1.31,1.31,0,0,0-1.06-1.52,1.33,1.33,0,0,0-1.59,1,1.13,1.13,0,0,0,.84,1.47A1.54,1.54,0,0,0,38.73,36.87Z"/><path class="cls-11" d="M34.66,39a1.31,1.31,0,0,0-1.06-1.52,1.34,1.34,0,0,0-1.59,1,1.12,1.12,0,0,0,.84,1.47A1.54,1.54,0,0,0,34.66,39Z"/><path class="cls-11" d="M29.66,41A1.35,1.35,0,0,0,27,40.46a1.12,1.12,0,0,0,.84,1.47A1.55,1.55,0,0,0,29.66,41Z"/><path class="cls-11" d="M24.6,42.07A1.35,1.35,0,0,0,22,41.54,1.1,1.1,0,0,0,22.78,43,1.56,1.56,0,0,0,24.6,42.07Z"/></g></g></svg>