<?xml version="1.0" encoding="utf-8"?>
<!-- Generator: Adobe Illustrator 21.0.2, SVG Export Plug-In . SVG Version: 6.00 Build 0)  -->
<svg version="1.1" id="Layer_1" xmlns="http://www.w3.org/2000/svg" xmlns:xlink="http://www.w3.org/1999/xlink" x="0px" y="0px"
	 viewBox="0 0 841.9 595.3" style="enable-background:new 0 0 841.9 595.3;" xml:space="preserve">
<style type="text/css">
	.st0{opacity:0.9;fill:#58595B;}
	.st1{fill:#1B75BC;}
	.st2{fill:#FBB040;}
	.st3{fill:#EF4136;}
	.st4{fill:#7D4E24;}
	.st5{fill:#6D4220;}
	.st6{fill:#A06232;}
	.st7{fill:#9E6B57;}
	.st8{fill:#C59575;}
	.st9{fill:#FFFFFF;}
	.st10{fill:#F1F2F2;}
</style>
<g>
	<g>
		<path class="st0" d="M570.8,282.9c0,1.1-0.4,2-1.1,2.7c-0.7,0.7-1.7,1.1-2.7,1.1c-1.1,0-2-0.4-2.7-1.1c-0.7-0.7-1.1-1.7-1.1-2.7
			c0-1.1,0.4-2,1.1-2.7c0.7-0.7,1.7-1.1,2.7-1.1c1.1,0,2,0.4,2.7,1.1C570.4,280.9,570.8,281.8,570.8,282.9 M569.9,282.9
			c0-0.8-0.3-1.5-0.9-2.1c-0.6-0.6-1.3-0.9-2.1-0.9c-0.8,0-1.5,0.3-2.1,0.9c-0.6,0.6-0.9,1.3-0.9,2.1c0,0.8,0.3,1.5,0.9,2.1
			c0.6,0.6,1.3,0.9,2.1,0.9c0.8,0,1.5-0.3,2.1-0.9C569.6,284.4,569.9,283.7,569.9,282.9z M569,284.7h-1.2l-1.1-1.4h-0.4v1.4h-0.9
			v-3.8h1.4c0.3,0,0.5,0,0.6,0c0.2,0,0.3,0.1,0.5,0.2c0.2,0.1,0.3,0.2,0.4,0.4c0.1,0.1,0.1,0.3,0.1,0.5c0,0.3-0.1,0.5-0.2,0.7
			c-0.2,0.2-0.3,0.3-0.6,0.4L569,284.7z M567.4,282c0-0.1,0-0.2,0-0.2c0-0.1-0.1-0.1-0.2-0.2c-0.1,0-0.1-0.1-0.2-0.1
			c-0.1,0-0.2,0-0.3,0h-0.3v1.1h0.2c0.1,0,0.3,0,0.4,0c0.1,0,0.2-0.1,0.3-0.1c0.1,0,0.1-0.1,0.1-0.2
			C567.4,282.2,567.4,282.1,567.4,282z"/>
	</g>
	<path class="st1" d="M377.9,291.8c-2.4-1.7-5.1-2.6-8-2.6c-3.8,0-7.1,1.4-9.7,4.1c-2.7,2.7-4,6-4,9.9s1.3,7.2,4,9.9
		c2.7,2.7,5.9,4.1,9.7,4.1c2.9,0,5.6-0.9,8-2.6v2.4h5.8v-27.5h-5.8V291.8z M375.6,309c-1.6,1.6-3.5,2.4-5.7,2.4
		c-2.2,0-4.1-0.8-5.7-2.4c-1.5-1.6-2.3-3.6-2.3-5.8c0-2.3,0.8-4.2,2.3-5.8c1.6-1.6,3.5-2.4,5.7-2.4c2.2,0,4.1,0.8,5.7,2.4
		c1.6,1.6,2.3,3.6,2.3,5.8C377.9,305.4,377.1,307.4,375.6,309z"/>
	<path class="st2" d="M470,291.8c-2.4-1.7-5.1-2.6-8-2.6c-3.8,0-7.1,1.4-9.7,4.1c-2.7,2.7-4,6-4,9.9s1.3,7.2,4,9.9
		c2.7,2.7,5.9,4.1,9.7,4.1c2.9,0,5.6-0.9,8-2.6v2.4h5.8v-27.5H470V291.8z M467.7,309c-1.6,1.6-3.5,2.4-5.7,2.4
		c-2.2,0-4.1-0.8-5.7-2.4c-1.5-1.6-2.3-3.6-2.3-5.8c0-2.3,0.8-4.2,2.3-5.8c1.6-1.6,3.5-2.4,5.7-2.4c2.2,0,4.1,0.8,5.7,2.4
		c1.6,1.6,2.3,3.6,2.3,5.8C470,305.4,469.2,307.4,467.7,309z"/>
	<path class="st2" d="M501.7,291.8c-2.4-1.7-5.1-2.6-8-2.6c-3.8,0-7.1,1.4-9.7,4.1c-2.7,2.7-4,6-4,9.9s1.3,7.2,4,9.9
		c2.7,2.7,5.9,4.1,9.7,4.1c2.9,0,5.6-0.9,8-2.6v2.4h5.8v-27.5h-5.8V291.8z M499.4,309.1c-1.6,1.6-3.5,2.4-5.7,2.4
		c-2.2,0-4.1-0.8-5.7-2.4c-1.5-1.6-2.3-3.6-2.3-5.8c0-2.3,0.8-4.2,2.3-5.8c1.6-1.6,3.5-2.4,5.7-2.4c2.2,0,4.1,0.8,5.7,2.4
		c1.6,1.6,2.3,3.6,2.3,5.8C501.7,305.5,500.9,307.5,499.4,309.1z"/>
	<path class="st3" d="M555.6,289.5v2.3c-2.4-1.7-5.1-2.6-8-2.6c-3.8,0-7.1,1.4-9.7,4.1c-2.7,2.7-4,6-4,9.9s1.3,7.2,4,9.9
		c2.7,2.7,5.9,4.1,9.7,4.1c2.9,0,5.6-0.9,8-2.6v2.4h5.8v-27.5H555.6z M553.3,309.1c-1.6,1.6-3.5,2.4-5.7,2.4c-2.2,0-4.1-0.8-5.7-2.4
		c-1.5-1.6-2.3-3.6-2.3-5.8c0-2.3,0.8-4.2,2.3-5.8c1.6-1.6,3.5-2.4,5.7-2.4c2.2,0,4.1,0.8,5.7,2.4c1.6,1.6,2.3,3.6,2.3,5.8
		C555.6,305.5,554.8,307.5,553.3,309.1z"/>
	<path class="st1" d="M350.8,281.8c-1.2-1.2-2.5-2.1-4.1-2.8c-1.6-0.7-3.3-1-5-1h-14.5V318h7.1v-14.2h7.4c1.8,0,3.5-0.3,5-1
		c1.6-0.7,2.9-1.6,4.1-2.8c1.2-1.2,2.1-2.5,2.8-4.1c0.7-1.6,1-3.3,1-5c0-1.8-0.3-3.5-1-5C352.9,284.4,352,283,350.8,281.8z
		 M347,293.2c-0.3,0.7-0.7,1.3-1.2,1.8c-0.5,0.5-1.1,0.9-1.8,1.2c-0.7,0.3-1.5,0.4-2.2,0.4h-7.4v-11.6h7.4c0.8,0,1.5,0.2,2.2,0.4
		c0.7,0.3,1.3,0.7,1.8,1.2c0.5,0.5,0.9,1.1,1.2,1.8c0.3,0.7,0.4,1.5,0.4,2.2C347.5,291.7,347.3,292.5,347,293.2z"/>
	<path class="st1" d="M412,291.4c-1-1.2-2.2-2.1-3.6-2.7c-2.2-0.9-4.8-1.1-7.3-0.7c-0.9,0.2-1.7,0.4-2.5,0.8
		c-0.8,0.4-1.5,0.8-2.1,1.3c0,0,0,0,0,0c-0.1-0.3-0.2-0.6-0.3-0.8c-0.1-0.2-0.3-0.5-0.5-0.7l-0.3-0.4h-5.9V318h7.1l0-19.6
		c0-0.5,0.2-0.9,0.6-1.3c0.4-0.5,0.9-0.9,1.5-1.2c0.7-0.4,1.4-0.7,2.3-0.9c0.9-0.2,1.8-0.3,2.8-0.3c1.5,0,2.5,0.5,3.2,1.6
		c0.8,1.2,1.1,2.8,1.1,5V318h7.1v-16.8c0-2.1-0.3-3.9-0.8-5.5C413.8,294,413,292.6,412,291.4z"/>
	<path class="st2" d="M436.8,302.7c0.1-0.1,0.1-0.1,0.2-0.2l10.5-14.2h-5.4c-1.2,0-2.2,0.2-3.1,0.7c-0.9,0.5-1.7,1.2-2.3,2.1l-7,9.5
		l0,0c-0.2,0.3-0.4,0.5-0.6,0.7c-0.2,0.2-0.3,0.3-0.5,0.4c-0.1,0.1-0.2,0.1-0.3,0.2h-0.5v-23.7h-7.1V318h7.1v-14.7l0.1,0.1
		c0.1,0.1,0.2,0.2,0.5,0.3c0.1,0,0.2,0.1,0.4,0.2c0.2,0.1,0.3,0.2,0.5,0.4c0.2,0.2,0.4,0.4,0.6,0.6l7.7,10.3
		c0.6,0.9,1.4,1.6,2.3,2.1c0.9,0.5,2,0.7,3.1,0.7h5.4L437,302.8C436.9,302.8,436.9,302.7,436.8,302.7z"/>
	<path class="st3" d="M529.3,311.9c-1.2-0.8-2.8-0.9-4.5-0.4l-0.5,0.1c-0.1,0-0.3,0-0.4-0.1c-0.1-0.1-0.2-0.2-0.3-0.3
		c-0.1-0.2-0.2-0.3-0.3-0.5c-0.1-0.2-0.1-0.4-0.1-0.6v-14.9h7.7v-6.9h-7.7v-10.1h-7l0,0.9c0,2.1,0,4.1,0,4.4v4.8
		c-3.8,0.1-4.7,1.7-4.7,3.1v3.8h4.7v14.9c0,1.2,0.2,2.3,0.6,3.3c0.4,1,0.9,1.9,1.6,2.7c0.7,0.7,1.6,1.3,2.6,1.8
		c1,0.4,2.1,0.6,3.4,0.6c0.6,0,1.2-0.1,1.9-0.2c0.7-0.2,1.3-0.4,2-0.6c0.6-0.2,1.3-0.5,1.9-0.9c0.6-0.3,1.1-0.7,1.5-1.1l0.5-0.5
		l-1.1-1.6C530.5,312.9,529.9,312.4,529.3,311.9z"/>
	<g>
		<g>
			<path class="st4" d="M311.4,306.2l-1.4,1.3l2.7,4.6c0,0-7.6,8.2-21.2,7.8l-0.6-4.9l-2.6-1L311.4,306.2z"/>
			<path class="st5" d="M308.8,309.1c0,0-3.1,2.2-17.7,6.2l0.8-0.6l2.3-3.6L308.8,309.1z"/>
			<path class="st6" d="M311.1,279.4c0,0,2.4,26.2-1.1,28.8c-0.3,0.3-0.7,0.6-1.2,0.9c-4.2,2.9-13.2,7.6-20.5,5
				c0,0-3.1-1.4-16.3-21.2C272,292.8,298.4,279.1,311.1,279.4z"/>
			<path class="st4" d="M272,292.8c1,3.1,13.1,2,23.7-1.4c10.6-3.5,16.4-8.9,15.4-12c-1-3.1-10-4-23.2,0.3
				C277.4,283.2,271,289.8,272,292.8z"/>
			<path class="st7" d="M273.1,290.4c1,2.9,10.7,1.8,20.7-1.5c10-3.3,15.8-7,14.9-10c-0.2-0.5-0.6-2.4-1.1-2.7
				c-2.6-1.5-9,0.4-17.2,3.1c-8.6,2.8-16.3,6.6-17.6,9.5C272.5,289.4,272.9,290,273.1,290.4z"/>
			<path class="st8" d="M272.6,289.1c1,2.9,10.7,1.8,20.7-1.5c10-3.3,15.8-7,14.9-10c-1-2.9-8.3-2.9-18.4,0.4
				C279.8,281.4,271.7,286.1,272.6,289.1z"/>
			<g>
				<path class="st9" d="M309.6,277c4.4,6-7.2,10.9-11.2,12.5c-3.8,1.5-7.7,2.5-11.7,3.4c-2.9,0.6-5.8,1.1-8.8,1.1
					c-2.2,0-4.5-0.4-5.7-2.4c-0.3-0.4-0.5-0.9-0.7-1.3c-0.3-0.7,0.7-1.2,1-0.5c1.1,2.5,2.9,3.1,5.4,3.1c2.7,0,5.4-0.5,8.1-1
					c3.7-0.8,7.5-1.7,11.1-3c3.1-1.2,6.2-2.6,8.9-4.6c2-1.4,4.6-3.9,2.7-6.4C308.4,277.2,309.2,276.4,309.6,277L309.6,277z"/>
			</g>
			<g>
				<path class="st9" d="M307.2,282.5c0.7,0.4,1.1,1.1,1.4,1.8c0.1,0.4-0.4,0.5-0.6,0.1c-0.2-0.6-0.6-1.1-1.2-1.5
					C306.6,282.8,306.9,282.4,307.2,282.5L307.2,282.5z"/>
			</g>
			<g>
				<path class="st9" d="M308.1,281.8c0.7,0.4,1.1,1.1,1.4,1.8c0.1,0.4-0.4,0.5-0.6,0.1c-0.2-0.6-0.6-1.1-1.2-1.5
					C307.5,282.1,307.8,281.6,308.1,281.8L308.1,281.8z"/>
			</g>
			<g>
				<path class="st9" d="M300.7,287c0.2,0.7,0.6,1.3,0.8,2c0.1,0.4-0.4,0.5-0.6,0.1c-0.2-0.7-0.6-1.3-0.8-2
					C300,286.7,300.6,286.6,300.7,287L300.7,287z"/>
			</g>
			<g>
				<path class="st9" d="M300,287.6c0.2,0.5,0.3,1,0.5,1.5c0.1,0.4-0.5,0.5-0.6,0.1c-0.2-0.5-0.3-1-0.5-1.5
					C299.3,287.3,299.9,287.2,300,287.6L300,287.6z"/>
			</g>
			<g>
				<path class="st9" d="M291.9,290.2c0.1,0.7,0.3,1.4,0.5,2.1c0.1,0.4-0.5,0.5-0.6,0.1c-0.2-0.7-0.4-1.4-0.5-2.1
					C291.3,290,291.8,289.9,291.9,290.2L291.9,290.2z"/>
			</g>
			<g>
				<path class="st9" d="M290.6,290.5c0.2,0.7,0.4,1.4,0.7,2c0.1,0.4-0.5,0.5-0.6,0.1c-0.2-0.7-0.4-1.4-0.7-2
					C289.9,290.2,290.5,290.1,290.6,290.5L290.6,290.5z"/>
			</g>
			<g>
				<path class="st9" d="M282.5,292.2c-0.4,0.6-0.4,1.1-0.1,1.8c0.2,0.3-0.3,0.6-0.5,0.3c-0.5-0.8-0.5-1.6,0.1-2.4
					C282.2,291.6,282.7,291.9,282.5,292.2L282.5,292.2z"/>
			</g>
			<g>
				<path class="st9" d="M281.2,292.5c0,0.5,0.2,1,0.3,1.5c0.1,0.4-0.5,0.5-0.6,0.1c-0.2-0.5-0.3-1.1-0.3-1.6
					C280.6,292.1,281.2,292.2,281.2,292.5L281.2,292.5z"/>
			</g>
			<g>
				<path class="st9" d="M275.1,292.3c-0.6,0.3-1,0.8-0.8,1.5c0.1,0.4-0.5,0.5-0.6,0.1c-0.3-1,0.2-1.6,1.1-2.1
					C275.1,291.6,275.4,292.1,275.1,292.3L275.1,292.3z"/>
			</g>
			<g>
				<path class="st9" d="M273.6,291.7c-0.6,0.3-1,0.8-0.8,1.5c0.1,0.4-0.5,0.5-0.6,0.1c-0.3-1,0.2-1.6,1.1-2.1
					C273.7,291,273.9,291.6,273.6,291.7L273.6,291.7z"/>
			</g>
			<g>
				<path class="st9" d="M312,305.1c-3.2,3.7-7.8,6-12.4,7.6c-2.2,0.8-4.6,1.4-7,1.6c-1.7,0.2-3.6,0.2-5.2-0.5
					c-0.7-0.3-0.3-1.4,0.3-1.1c1.5,0.7,3.2,0.6,4.8,0.5c2.2-0.2,4.3-0.8,6.4-1.5c4.4-1.5,9-3.8,12.1-7.5
					C311.7,303.7,312.5,304.5,312,305.1L312,305.1z"/>
			</g>
			<g>
				<path class="st9" d="M308.4,306.5c0.1,0.8,0.3,1.6,0.4,2.5c0,0.4-0.5,0.5-0.6,0.1c-0.1-0.8-0.3-1.6-0.4-2.5
					C307.8,306.2,308.4,306.1,308.4,306.5L308.4,306.5z"/>
			</g>
			<g>
				<path class="st9" d="M307.6,307.3c0.2,0.8,0.3,1.6,0.4,2.4c0,0.4-0.6,0.3-0.6,0c-0.1-0.8-0.1-1.5-0.4-2.2
					C306.9,307.1,307.5,307,307.6,307.3L307.6,307.3z"/>
			</g>
			<g>
				<path class="st9" d="M302.1,310.1c0.2,0.6,0.4,1.2,0.6,1.9c0.1,0.4-0.5,0.5-0.6,0.1c-0.2-0.6-0.4-1.2-0.6-1.9
					C301.4,309.8,302,309.7,302.1,310.1L302.1,310.1z"/>
			</g>
			<g>
				<path class="st9" d="M303.1,309.6c0.1,0.8,0.3,1.5,0.6,2.2c0.1,0.4-0.5,0.5-0.6,0.1c-0.2-0.7-0.5-1.5-0.6-2.3
					C302.5,309.3,303.1,309.2,303.1,309.6L303.1,309.6z"/>
			</g>
			<g>
				<path class="st9" d="M295.2,312.2c0.1,0.9,0.4,1.7,0.8,2.5c0.2,0.3-0.3,0.6-0.5,0.3c-0.4-0.8-0.7-1.7-0.9-2.6
					C294.5,311.9,295.1,311.8,295.2,312.2L295.2,312.2z"/>
			</g>
			<g>
				<path class="st9" d="M294.1,312.5c0.1,0.8,0.3,1.5,0.6,2.2c0.1,0.4-0.5,0.5-0.6,0.1c-0.2-0.7-0.5-1.5-0.6-2.2
					C293.5,312.3,294.1,312.1,294.1,312.5L294.1,312.5z"/>
			</g>
			<g>
				<path class="st9" d="M289.4,312.2c0.1,0.8,0.3,1.6,0.6,2.4c0.1,0.4-0.5,0.5-0.6,0.1c-0.3-0.8-0.5-1.6-0.6-2.4
					C288.8,312,289.3,311.8,289.4,312.2L289.4,312.2z"/>
			</g>
			<g>
				<path class="st9" d="M288.4,312.3c0.2,0.7,0.5,1.4,0.8,2.1c0.1,0.4-0.4,0.5-0.6,0.1c-0.2-0.7-0.5-1.4-0.8-2.1
					C287.7,312,288.2,311.9,288.4,312.3L288.4,312.3z"/>
			</g>
			<g>
				<path class="st9" d="M308.8,283.4c0.5,4.1,0,8.4-0.2,12.5c-0.2,3.8-0.4,7.8-1,11.5c-0.1,0.4-0.6,0.3-0.6,0c0.6-3.6,0.7-7.3,1-11
					c0.3-4.2,0.7-8.7,0.3-12.9C308.2,283.1,308.8,283,308.8,283.4L308.8,283.4z"/>
			</g>
			<g>
				<path class="st9" d="M307.3,307.5c-1.1-3.3-2-6.6-3-9.9c-0.6-1.8-1.2-3.7-1.9-5.4c-0.5-1.3-1.1-2.7-2-3.8
					c-0.2-0.3,0.2-0.7,0.4-0.4c2,2.5,2.9,6,3.8,9c1.1,3.5,2.1,7,3.2,10.5C308,307.7,307.4,307.8,307.3,307.5L307.3,307.5z"/>
			</g>
			<g>
				<path class="st9" d="M301,289.1c0.4,7.1,1,14.1,1.6,21.2c0,0.4-0.5,0.5-0.6,0.1c-0.6-7.1-1.3-14.2-1.6-21.4
					C300.4,288.7,300.9,288.8,301,289.1L301,289.1z"/>
			</g>
			<g>
				<path class="st9" d="M291.2,291.6c3.8,6.3,7.8,12.5,11.2,19c0.2,0.3-0.3,0.6-0.5,0.3c-3.5-6.5-7.5-12.7-11.2-19
					C290.5,291.5,291,291.3,291.2,291.6L291.2,291.6z"/>
			</g>
			<g>
				<path class="st9" d="M291.4,292.2c0.9,6.9,2.1,13.8,2.7,20.8c0,0.4-0.5,0.5-0.6,0.1c-0.6-7-1.9-13.9-2.7-20.8
					C290.8,292,291.3,291.8,291.4,292.2L291.4,292.2z"/>
			</g>
			<g>
				<path class="st9" d="M309.3,283.8c0.7,3.4,1.1,6.8,1.5,10.2c0.4,3.5,0.9,7.1,1.1,10.6c0,0.4-0.6,0.3-0.6,0
					c-0.2-3.6-0.6-7.2-1.1-10.8c-0.4-3.3-0.8-6.7-1.5-9.9C308.7,283.6,309.3,283.4,309.3,283.8L309.3,283.8z"/>
			</g>
			<g>
				<path class="st9" d="M294.3,313.5c-4-6.9-8.4-13.6-12.5-20.5c-0.2-0.3,0.3-0.6,0.5-0.3c4.1,6.9,8.5,13.6,12.5,20.5
					C295,313.5,294.5,313.8,294.3,313.5L294.3,313.5z"/>
			</g>
			<g>
				<path class="st9" d="M282.1,293.1c2.2,6.8,4.8,13.5,7,20.3c0.1,0.4-0.5,0.5-0.6,0.1c-2.2-6.8-4.8-13.5-7-20.3
					C281.4,292.9,282,292.8,282.1,293.1L282.1,293.1z"/>
			</g>
			<g>
				<path class="st9" d="M273,292.7c2.5,3.6,5,7.1,7.6,10.7c2.5,3.4,4.8,7.1,7.9,10.1c0.3,0.3-0.2,0.7-0.4,0.4
					c-3-3-5.4-6.7-7.9-10.1c-2.6-3.6-5.1-7.2-7.7-10.8C272.2,292.7,272.8,292.4,273,292.7L273,292.7z"/>
			</g>
			<g>
				<path class="st9" d="M311.1,304c0.2,0.7,0.4,1.3,0.8,1.9c0.2,0.3-0.3,0.6-0.5,0.3c-0.3-0.7-0.6-1.4-0.8-2.1
					C310.4,303.8,311,303.7,311.1,304L311.1,304z"/>
			</g>
			<g>
				<path class="st9" d="M309.3,283.5c1.2,3.4,1.7,7,2.2,10.5c0.5,3.3,1,6.7,0.7,10c0,0.4-0.6,0.3-0.6,0c0.4-3.4-0.2-6.9-0.7-10.3
					c-0.5-3.4-1-6.9-2.1-10.1C308.6,283.3,309.2,283.1,309.3,283.5L309.3,283.5z"/>
			</g>
			<g>
				<path class="st9" d="M308.8,283.9c0.1,1.8-0.2,3.5-0.5,5.3c-0.3,2-0.5,4.1-0.6,6.1c-0.1,1.9,0.1,3.8,0,5.8
					c-0.1,2.1-0.3,4.1,0,6.2c0.1,0.4-0.5,0.5-0.6,0.1c-0.3-1.8-0.2-3.7-0.1-5.6c0.1-2,0-4.1,0.1-6.1c0.1-2.1,0.2-4.1,0.5-6.1
					c0.3-1.9,0.7-3.8,0.6-5.7C308.2,283.5,308.8,283.5,308.8,283.9L308.8,283.9z"/>
			</g>
			<g>
				<path class="st9" d="M301.1,289c0.8,3.2,2.3,6.1,3.6,9.1c1.3,2.9,2,6,3.5,8.9c0.2,0.3-0.3,0.6-0.5,0.3c-1.4-2.8-2.2-6-3.5-8.9
					c-1.3-3.1-2.8-6-3.6-9.3C300.4,288.7,301,288.6,301.1,289L301.1,289z"/>
			</g>
			<g>
				<path class="st9" d="M301,289.1c0.4,7.2,1.9,14.3,2.5,21.5c0,0.4-0.5,0.5-0.6,0.1c-0.6-7.2-2.1-14.4-2.5-21.7
					C300.4,288.7,300.9,288.8,301,289.1L301,289.1z"/>
			</g>
			<g>
				<path class="st9" d="M292,290.9c3.8,6.4,7,13.2,10.4,19.7c0.2,0.3-0.3,0.6-0.5,0.3c-3.5-6.5-6.7-13.3-10.4-19.7
					C291.3,290.8,291.8,290.6,292,290.9L292,290.9z"/>
			</g>
			<g>
				<path class="st9" d="M291.4,292.2c0.9,7.1,3.1,13.9,3.8,21c0,0.4-0.5,0.5-0.6,0.1c-0.7-7.1-2.9-14-3.8-21
					C290.8,292,291.3,291.8,291.4,292.2L291.4,292.2z"/>
			</g>
			<g>
				<path class="st9" d="M294.3,313.5c-4.1-7-9.2-13.3-13.4-20.3c-0.2-0.3,0.3-0.6,0.5-0.3c4.1,7,9.3,13.3,13.4,20.3
					C295,313.5,294.5,313.8,294.3,313.5L294.3,313.5z"/>
			</g>
			<g>
				<path class="st9" d="M281.4,293.4c2.3,6.8,5.1,13.4,7.3,20.2c0.1,0.4-0.5,0.5-0.6,0.1c-2.3-6.8-5.1-13.4-7.3-20.2
					C280.7,293.2,281.2,293,281.4,293.4L281.4,293.4z"/>
			</g>
			<g>
				<path class="st9" d="M274.2,292.6c2.5,3.6,4.9,7.4,7.4,11.1c1.4,2.1,2.7,4.1,4.1,6.1c0.8,1.2,1.7,2.6,2.7,3.6
					c0.3,0.3-0.2,0.7-0.4,0.4c-1-1-1.8-2.2-2.6-3.4c-1.4-2-2.7-4-4.1-6c-2.6-3.9-5-7.8-7.7-11.6C273.5,292.6,274,292.3,274.2,292.6
					L274.2,292.6z"/>
			</g>
		</g>
		<path class="st10" d="M310.2,312.4c0.1-0.7-0.3-1.4-1.1-1.5c-0.7-0.1-1.4,0.3-1.6,1c-0.1,0.7,0.1,1.3,0.8,1.5
			C309.1,313.4,310.1,313.1,310.2,312.4z"/>
		<path class="st10" d="M306.1,314.5c0.1-0.7-0.3-1.4-1.1-1.5c-0.7-0.1-1.4,0.3-1.6,1c-0.1,0.7,0.1,1.3,0.8,1.5
			C305,315.6,306,315.2,306.1,314.5z"/>
		<path class="st10" d="M301.1,316.5c0.1-0.7-0.3-1.4-1.1-1.5c-0.7-0.1-1.4,0.3-1.6,1c-0.1,0.7,0.1,1.3,0.8,1.5
			C300,317.6,301,317.2,301.1,316.5z"/>
		<path class="st10" d="M296.1,317.6c0.1-0.7-0.3-1.4-1.1-1.5c-0.7-0.1-1.4,0.3-1.6,1c-0.1,0.7,0.1,1.3,0.8,1.5
			C295,318.6,295.9,318.3,296.1,317.6z"/>
	</g>
</g>
</svg>
